<svg xmlns="http://www.w3.org/2000/svg" viewBox="0 0 64 64" width="64" height="64">
  <defs>
    <linearGradient id="g" x1="0" y1="0" x2="1" y2="1">
      <stop offset="0%" stop-color="#6c5ce7"/>
      <stop offset="50%" stop-color="#00b8d4"/>
      <stop offset="100%" stop-color="#00e5a0"/>
    </linearGradient>
  </defs>
  <rect x="4" y="4" width="56" height="56" rx="16" fill="url(#g)"/>
  <path d="M32 14a10 10 0 0 1 10 10v4h2a4 4 0 0 1 4 4v12a4 4 0 0 1-4 4H20a4 4 0 0 1-4-4V32a4 4 0 0 1 4-4h2v-4a10 10 0 0 1 10-10Zm0 6a4 4 0 0 0-4 4v4h8v-4a4 4 0 0 0-4-4Zm0 16a3 3 0 0 0-1.5 5.6V44a1.5 1.5 0 0 0 3 0v-2.4A3 3 0 0 0 32 36Z" fill="#fff"/>
</svg>
