<svg xmlns="http://www.w3.org/2000/svg" viewBox="0 0 1200 630" width="1200" height="630">
  <defs>
    <linearGradient id="bg" x1="0" y1="0" x2="1" y2="1">
      <stop offset="0%" stop-color="#0b1120"/>
      <stop offset="100%" stop-color="#1a1840"/>
    </linearGradient>
    <linearGradient id="accent" x1="0" y1="0" x2="1" y2="1">
      <stop offset="0%" stop-color="#6c5ce7"/>
      <stop offset="50%" stop-color="#00b8d4"/>
      <stop offset="100%" stop-color="#00e5a0"/>
    </linearGradient>
  </defs>
  <rect width="1200" height="630" fill="url(#bg)"/>
  <circle cx="980" cy="120" r="260" fill="#6c5ce7" opacity="0.18"/>
  <circle cx="180" cy="560" r="240" fill="#00e5a0" opacity="0.14"/>
  <g transform="translate(96,210)">
    <rect width="120" height="120" rx="32" fill="url(#accent)"/>
    <path d="M60 26a20 20 0 0 1 20 20v8h4a8 8 0 0 1 8 8v24a8 8 0 0 1-8 8H36a8 8 0 0 1-8-8V62a8 8 0 0 1 8-8h4v-8a20 20 0 0 1 20-20Zm0 12a8 8 0 0 0-8 8v8h16v-8a8 8 0 0 0-8-8Z" fill="#fff"/>
  </g>
  <text x="248" y="278" font-family="Segoe UI, Helvetica, Arial, sans-serif" font-size="64" font-weight="800" fill="#ffffff">SecurePass Studio</text>
  <text x="250" y="338" font-family="Segoe UI, Helvetica, Arial, sans-serif" font-size="34" fill="#c7d2fe">Password Strength Checker &amp; Generator</text>
  <text x="96" y="470" font-family="Segoe UI, Helvetica, Arial, sans-serif" font-size="28" fill="#94a3b8">Real-time analysis · Entropy · Crack-time · Breach detection · 100% client-side</text>
</svg>
